<?xml version="1.0" encoding="utf-8"?>
<?xml-stylesheet type="text/xsl" href="rss1.xsl"?>
<rss version="2.0" xmlns:atom="http://www.w3.org/2005/Atom" xmlns:content="http://purl.org/rss/1.0/modules/content/" xmlns:dc="http://purl.org/dc/elements/1.1/" xmlns:media="http://search.yahoo.com/mrss/">
<channel>
 <title>Getty</title>
 <link>http://www.gettyimg.com/</link>
 <atom:link href="http://www.gettyimg.com/" rel="self" type="application/rss+xml" />

 
                <item>
                <title><![CDATA[【HD Live Performances】WEB-RiP - Bad Gyal - Arenal Sound 2022 (07-08-2022) 1080p WEB-DL AAC2.0 H.264]]></title>
                <link><![CDATA[https://sharemania.us/threads/bad-gyal-arenal-sound-2022-07-08-2022-1080p-web-dl-aac2-0-h-264.219649/]]></link>
                <description><![CDATA[<article>
<blockquote class="messageText SelectQuoteContainer ugc baseHtml">
<img src="https://images2.imgbox.com/4e/cf/fKjY5wth_o.png" class="bbCodeImage LbImage" alt="[​IMG]" data-url="https://images2.imgbox.com/4e/cf/fKjY5wth_o.png" style=""> <br>
<br>
<br>
<div class="ToggleTriggerAnchor bbCodeSpoilerContainer">
<button type="button" class="button bbCodeSpoilerButton ToggleTrigger Tooltip JsOnly" data-target="> .SpoilerTarget"><span>Spoiler: <span class="SpoilerTitle">MediaInfo</span></span></button>
<div class="SpoilerTarget bbCodeSpoilerText">Format: MPEG-4<br>
Format profile: Base Media<br>
Codec ID: isom (isom/iso2/avc1/mp41)<br>
File size: 1.23 GiB<br>
Duration: 1 h 3 min<br>
Overall bit rate: 2 765 kb/s<br>
Frame rate: 25.000 FPS<br>
Writing application: Lavf59.30.100<br>
<br>
<br>
Video<br>
ID: 1<br>
Format: AVC<br>
Format/Info: Advanced Video Codec<br>
Format profile: High@L4<br>
Format settings: CABAC / 3 Ref Frames<br>
Format settings, CABAC: Yes<br>
Format settings, Reference frames: 3 frames<br>
Codec ID: avc1<br>
Codec ID/Info: Advanced Video Coding<br>
Duration: 1 h 3 min<br>
Bit rate: 2 631 kb/s<br>
Width: 1 920 pixels<br>
Height: 1 080 pixels<br>
Display aspect ratio: 16:9<br>
Frame rate mode: Constant<br>
Frame rate: 25.000 FPS<br>
Color space: YUV<br>
Chroma subsampling: 4:2:0<br>
Bit depth: 8 bits<br>
Scan type: Progressive<br>
Bits/(Pixel*Frame): 0.051<br>
Stream size: 1.17 GiB (95%)<br>
Title: ISO Media file produced by Google Inc.<br>
Writing library: x264 core 155 r2901 7d0ff22<br>
Color range: Limited<br>
Color primaries: BT.709<br>
Transfer characteristics: BT.709<br>
Matrix coefficients: BT.709<br>
Codec configuration box: avcC<br>
<br>
<br>
Audio<br>
ID: 2<br>
Format: AAC LC<br>
Format/Info: Advanced Audio Codec Low Complexity<br>
Codec ID: mp4a-40-2<br>
Duration: 1 h 3 min<br>
Bit rate mode: Constant<br>
Bit rate: 128 kb/s<br>
Channel(s): 2 channels<br>
Channel layout: L R<br>
Sampling rate: 44.1 kHz<br>
Frame rate: 43.066 FPS (1024 SPF)<br>
Compression mode: Lossy<br>
Stream size: 58.3 MiB (5%)<br>
Title: ISO Media file produced by Google Inc.</div>
</div><br>
<div class="bbCodeBlock bbCodeVfcHH HiddenContent">
<div class="attribution type">Hidden Content:</div>
<blockquote>You must reply before you can see the hidden data contained here.</blockquote>
</div>
<div class="messageTextEndMarker">&nbsp;</div>
</blockquote>
</article>]]></description>
                <author><![CDATA[plantas]]></author>
                </item>

                </channel></rss>